<mxfile host="Electron" modified="2023-09-04T11:56:41.496Z" agent="Mozilla/5.0 (Windows NT 10.0; Win64; x64) AppleWebKit/537.36 (KHTML, like Gecko) draw.io/21.6.8 Chrome/114.0.5735.289 Electron/25.5.0 Safari/537.36" etag="2dJApYnGJj15JAdzkfdN" version="21.6.8" type="device">
  <diagram name="Page-1" id="EhJUMh0n_4eRlD67f5GD">
    <mxGraphModel dx="917" dy="674" grid="0" gridSize="10" guides="1" tooltips="1" connect="1" arrows="1" fold="1" page="0" pageScale="1" pageWidth="850" pageHeight="1100" math="0" shadow="0">
      <root>
        <mxCell id="0" />
        <mxCell id="1" parent="0" />
        <mxCell id="c5WlVnpwtsbiAsPfaiiA-53" value="" style="orthogonalLoop=1;jettySize=auto;html=1;rounded=0;dashed=1;endArrow=none;endFill=0;" parent="1" edge="1">
          <mxGeometry width="100" relative="1" as="geometry">
            <mxPoint x="232" y="26.75" as="sourcePoint" />
            <mxPoint x="232" y="408.75" as="targetPoint" />
          </mxGeometry>
        </mxCell>
        <mxCell id="c5WlVnpwtsbiAsPfaiiA-36" style="rounded=0;orthogonalLoop=1;jettySize=auto;html=1;exitX=0;exitY=0.5;exitDx=0;exitDy=0;startArrow=classic;startFill=1;entryX=0.791;entryY=0.118;entryDx=0;entryDy=0;entryPerimeter=0;" parent="1" source="c5WlVnpwtsbiAsPfaiiA-4" target="c5WlVnpwtsbiAsPfaiiA-8" edge="1">
          <mxGeometry relative="1" as="geometry" />
        </mxCell>
        <mxCell id="c5WlVnpwtsbiAsPfaiiA-43" style="rounded=0;orthogonalLoop=1;jettySize=auto;html=1;exitX=0;exitY=1;exitDx=0;exitDy=0;entryX=0.5;entryY=0;entryDx=0;entryDy=0;entryPerimeter=0;startArrow=classic;startFill=1;" parent="1" source="c5WlVnpwtsbiAsPfaiiA-4" target="c5WlVnpwtsbiAsPfaiiA-9" edge="1">
          <mxGeometry relative="1" as="geometry" />
        </mxCell>
        <mxCell id="c5WlVnpwtsbiAsPfaiiA-44" style="rounded=0;orthogonalLoop=1;jettySize=auto;html=1;exitX=0.25;exitY=1;exitDx=0;exitDy=0;entryX=0.543;entryY=0.305;entryDx=0;entryDy=0;entryPerimeter=0;startArrow=classic;startFill=1;" parent="1" source="c5WlVnpwtsbiAsPfaiiA-4" target="c5WlVnpwtsbiAsPfaiiA-10" edge="1">
          <mxGeometry relative="1" as="geometry" />
        </mxCell>
        <mxCell id="c5WlVnpwtsbiAsPfaiiA-4" value="Database" style="image;aspect=fixed;perimeter=ellipsePerimeter;html=1;align=center;shadow=0;dashed=0;spacingTop=3;image=img/lib/active_directory/databases.svg;" parent="1" vertex="1">
          <mxGeometry x="890" y="93.5" width="50" height="49" as="geometry" />
        </mxCell>
        <mxCell id="c5WlVnpwtsbiAsPfaiiA-37" style="rounded=0;orthogonalLoop=1;jettySize=auto;html=1;exitX=0;exitY=0.5;exitDx=0;exitDy=0;entryX=0.57;entryY=0.5;entryDx=0;entryDy=0;entryPerimeter=0;startArrow=classic;startFill=1;" parent="1" source="c5WlVnpwtsbiAsPfaiiA-5" target="c5WlVnpwtsbiAsPfaiiA-9" edge="1">
          <mxGeometry relative="1" as="geometry" />
        </mxCell>
        <mxCell id="c5WlVnpwtsbiAsPfaiiA-39" style="rounded=0;orthogonalLoop=1;jettySize=auto;html=1;exitX=0;exitY=0;exitDx=0;exitDy=0;entryX=0.791;entryY=0.585;entryDx=0;entryDy=0;entryPerimeter=0;startArrow=classic;startFill=1;" parent="1" source="c5WlVnpwtsbiAsPfaiiA-5" target="c5WlVnpwtsbiAsPfaiiA-8" edge="1">
          <mxGeometry relative="1" as="geometry" />
        </mxCell>
        <mxCell id="c5WlVnpwtsbiAsPfaiiA-40" style="rounded=0;orthogonalLoop=1;jettySize=auto;html=1;exitX=0;exitY=1;exitDx=0;exitDy=0;startArrow=classic;startFill=1;entryX=0.57;entryY=0.5;entryDx=0;entryDy=0;entryPerimeter=0;" parent="1" source="c5WlVnpwtsbiAsPfaiiA-5" target="c5WlVnpwtsbiAsPfaiiA-10" edge="1">
          <mxGeometry relative="1" as="geometry" />
        </mxCell>
        <mxCell id="c5WlVnpwtsbiAsPfaiiA-5" value="Database" style="image;aspect=fixed;perimeter=ellipsePerimeter;html=1;align=center;shadow=0;dashed=0;spacingTop=3;image=img/lib/active_directory/databases.svg;" parent="1" vertex="1">
          <mxGeometry x="890" y="203.5" width="50" height="49" as="geometry" />
        </mxCell>
        <mxCell id="c5WlVnpwtsbiAsPfaiiA-38" style="rounded=0;orthogonalLoop=1;jettySize=auto;html=1;exitX=0;exitY=0.75;exitDx=0;exitDy=0;entryX=1;entryY=0.99;entryDx=0;entryDy=0;entryPerimeter=0;startArrow=classic;startFill=1;" parent="1" source="c5WlVnpwtsbiAsPfaiiA-6" target="c5WlVnpwtsbiAsPfaiiA-10" edge="1">
          <mxGeometry relative="1" as="geometry" />
        </mxCell>
        <mxCell id="c5WlVnpwtsbiAsPfaiiA-41" style="rounded=0;orthogonalLoop=1;jettySize=auto;html=1;exitX=0;exitY=0.25;exitDx=0;exitDy=0;entryX=0.744;entryY=0.958;entryDx=0;entryDy=0;entryPerimeter=0;startArrow=classic;startFill=1;" parent="1" source="c5WlVnpwtsbiAsPfaiiA-6" target="c5WlVnpwtsbiAsPfaiiA-9" edge="1">
          <mxGeometry relative="1" as="geometry" />
        </mxCell>
        <mxCell id="c5WlVnpwtsbiAsPfaiiA-42" style="rounded=0;orthogonalLoop=1;jettySize=auto;html=1;exitX=0.25;exitY=0;exitDx=0;exitDy=0;entryX=0.76;entryY=1.038;entryDx=0;entryDy=0;entryPerimeter=0;startArrow=classic;startFill=1;" parent="1" source="c5WlVnpwtsbiAsPfaiiA-6" target="c5WlVnpwtsbiAsPfaiiA-8" edge="1">
          <mxGeometry relative="1" as="geometry" />
        </mxCell>
        <mxCell id="c5WlVnpwtsbiAsPfaiiA-6" value="Database" style="image;aspect=fixed;perimeter=ellipsePerimeter;html=1;align=center;shadow=0;dashed=0;spacingTop=3;image=img/lib/active_directory/databases.svg;" parent="1" vertex="1">
          <mxGeometry x="890" y="303.5" width="50" height="49" as="geometry" />
        </mxCell>
        <mxCell id="c5WlVnpwtsbiAsPfaiiA-31" style="rounded=0;orthogonalLoop=1;jettySize=auto;html=1;exitX=0.855;exitY=0.145;exitDx=0;exitDy=0;exitPerimeter=0;entryX=0;entryY=1;entryDx=0;entryDy=0;entryPerimeter=0;startArrow=classic;startFill=1;" parent="1" source="c5WlVnpwtsbiAsPfaiiA-7" target="c5WlVnpwtsbiAsPfaiiA-8" edge="1">
          <mxGeometry relative="1" as="geometry" />
        </mxCell>
        <mxCell id="c5WlVnpwtsbiAsPfaiiA-72" style="rounded=0;orthogonalLoop=1;jettySize=auto;html=1;exitX=1;exitY=0.5;exitDx=0;exitDy=0;exitPerimeter=0;entryX=0.031;entryY=0.332;entryDx=0;entryDy=0;entryPerimeter=0;startArrow=classic;startFill=1;" parent="1" source="c5WlVnpwtsbiAsPfaiiA-7" target="c5WlVnpwtsbiAsPfaiiA-9" edge="1">
          <mxGeometry relative="1" as="geometry" />
        </mxCell>
        <mxCell id="c5WlVnpwtsbiAsPfaiiA-7" value="Load balancer" style="outlineConnect=0;dashed=0;verticalLabelPosition=bottom;verticalAlign=top;align=center;html=1;shape=mxgraph.aws3.classic_load_balancer;fillColor=#F58536;gradientColor=none;" parent="1" vertex="1">
          <mxGeometry x="610" y="200.25" width="50" height="51.5" as="geometry" />
        </mxCell>
        <mxCell id="c5WlVnpwtsbiAsPfaiiA-8" value="Application server" style="sketch=0;aspect=fixed;pointerEvents=1;shadow=0;dashed=0;html=1;strokeColor=none;labelPosition=center;verticalLabelPosition=bottom;verticalAlign=top;align=center;fillColor=#00188D;shape=mxgraph.mscae.enterprise.application_server" parent="1" vertex="1">
          <mxGeometry x="700" y="88.75" width="43" height="50" as="geometry" />
        </mxCell>
        <mxCell id="c5WlVnpwtsbiAsPfaiiA-9" value="Application server" style="sketch=0;aspect=fixed;pointerEvents=1;shadow=0;dashed=0;html=1;strokeColor=none;labelPosition=center;verticalLabelPosition=bottom;verticalAlign=top;align=center;fillColor=#00188D;shape=mxgraph.mscae.enterprise.application_server" parent="1" vertex="1">
          <mxGeometry x="700" y="208.75" width="43" height="50" as="geometry" />
        </mxCell>
        <mxCell id="c5WlVnpwtsbiAsPfaiiA-33" style="rounded=0;orthogonalLoop=1;jettySize=auto;html=1;exitX=0.02;exitY=0.01;exitDx=0;exitDy=0;exitPerimeter=0;entryX=0.855;entryY=0.855;entryDx=0;entryDy=0;entryPerimeter=0;startArrow=classic;startFill=1;" parent="1" source="c5WlVnpwtsbiAsPfaiiA-10" target="c5WlVnpwtsbiAsPfaiiA-7" edge="1">
          <mxGeometry relative="1" as="geometry" />
        </mxCell>
        <mxCell id="c5WlVnpwtsbiAsPfaiiA-10" value="Application server" style="sketch=0;aspect=fixed;pointerEvents=1;shadow=0;dashed=0;html=1;strokeColor=none;labelPosition=center;verticalLabelPosition=bottom;verticalAlign=top;align=center;fillColor=#00188D;shape=mxgraph.mscae.enterprise.application_server" parent="1" vertex="1">
          <mxGeometry x="700" y="328.75" width="43" height="50" as="geometry" />
        </mxCell>
        <mxCell id="c5WlVnpwtsbiAsPfaiiA-20" style="rounded=0;orthogonalLoop=1;jettySize=auto;html=1;entryX=1;entryY=0.5;entryDx=0;entryDy=0;startArrow=block;startFill=1;" parent="1" source="c5WlVnpwtsbiAsPfaiiA-7" target="c5WlVnpwtsbiAsPfaiiA-18" edge="1">
          <mxGeometry relative="1" as="geometry" />
        </mxCell>
        <mxCell id="c5WlVnpwtsbiAsPfaiiA-48" style="rounded=0;orthogonalLoop=1;jettySize=auto;html=1;exitX=0;exitY=0.5;exitDx=0;exitDy=0;exitPerimeter=0;entryX=1;entryY=0.5;entryDx=0;entryDy=0;endArrow=none;endFill=0;startArrow=classic;startFill=1;" parent="1" source="c5WlVnpwtsbiAsPfaiiA-12" target="c5WlVnpwtsbiAsPfaiiA-17" edge="1">
          <mxGeometry relative="1" as="geometry" />
        </mxCell>
        <mxCell id="c5WlVnpwtsbiAsPfaiiA-12" value="Load balancer" style="outlineConnect=0;dashed=0;verticalLabelPosition=bottom;verticalAlign=top;align=center;html=1;shape=mxgraph.aws3.classic_load_balancer;fillColor=#F58536;gradientColor=none;" parent="1" vertex="1">
          <mxGeometry x="300" y="192" width="50" height="51.5" as="geometry" />
        </mxCell>
        <mxCell id="c5WlVnpwtsbiAsPfaiiA-45" style="rounded=0;orthogonalLoop=1;jettySize=auto;html=1;exitX=0;exitY=0.75;exitDx=0;exitDy=0;entryX=0.855;entryY=0.145;entryDx=0;entryDy=0;entryPerimeter=0;startArrow=classic;startFill=1;" parent="1" source="c5WlVnpwtsbiAsPfaiiA-13" target="c5WlVnpwtsbiAsPfaiiA-12" edge="1">
          <mxGeometry relative="1" as="geometry" />
        </mxCell>
        <mxCell id="c5WlVnpwtsbiAsPfaiiA-13" value="Web Server" style="image;aspect=fixed;perimeter=ellipsePerimeter;html=1;align=center;shadow=0;dashed=0;spacingTop=3;image=img/lib/active_directory/web_server.svg;" parent="1" vertex="1">
          <mxGeometry x="415" y="79" width="40" height="50" as="geometry" />
        </mxCell>
        <mxCell id="c5WlVnpwtsbiAsPfaiiA-46" style="rounded=0;orthogonalLoop=1;jettySize=auto;html=1;exitX=0;exitY=0.5;exitDx=0;exitDy=0;startArrow=classic;startFill=1;" parent="1" source="c5WlVnpwtsbiAsPfaiiA-14" target="c5WlVnpwtsbiAsPfaiiA-12" edge="1">
          <mxGeometry relative="1" as="geometry" />
        </mxCell>
        <mxCell id="c5WlVnpwtsbiAsPfaiiA-14" value="Web Server" style="image;aspect=fixed;perimeter=ellipsePerimeter;html=1;align=center;shadow=0;dashed=0;spacingTop=3;image=img/lib/active_directory/web_server.svg;" parent="1" vertex="1">
          <mxGeometry x="415" y="198" width="40" height="50" as="geometry" />
        </mxCell>
        <mxCell id="c5WlVnpwtsbiAsPfaiiA-47" style="rounded=0;orthogonalLoop=1;jettySize=auto;html=1;exitX=0;exitY=0;exitDx=0;exitDy=0;entryX=0.855;entryY=0.855;entryDx=0;entryDy=0;entryPerimeter=0;startArrow=classic;startFill=1;" parent="1" source="c5WlVnpwtsbiAsPfaiiA-15" target="c5WlVnpwtsbiAsPfaiiA-12" edge="1">
          <mxGeometry relative="1" as="geometry" />
        </mxCell>
        <mxCell id="c5WlVnpwtsbiAsPfaiiA-15" value="Web Server" style="image;aspect=fixed;perimeter=ellipsePerimeter;html=1;align=center;shadow=0;dashed=0;spacingTop=3;image=img/lib/active_directory/web_server.svg;" parent="1" vertex="1">
          <mxGeometry x="410" y="319" width="40" height="50" as="geometry" />
        </mxCell>
        <mxCell id="c5WlVnpwtsbiAsPfaiiA-16" value="User" style="points=[[0.35,0,0],[0.98,0.51,0],[1,0.71,0],[0.67,1,0],[0,0.795,0],[0,0.65,0]];verticalLabelPosition=bottom;sketch=0;html=1;verticalAlign=top;aspect=fixed;align=center;pointerEvents=1;shape=mxgraph.cisco19.user;fillColor=#005073;strokeColor=none;" parent="1" vertex="1">
          <mxGeometry x="30" y="195.75" width="50" height="50" as="geometry" />
        </mxCell>
        <mxCell id="c5WlVnpwtsbiAsPfaiiA-49" style="rounded=0;orthogonalLoop=1;jettySize=auto;html=1;exitX=0;exitY=0.5;exitDx=0;exitDy=0;entryX=1;entryY=0.5;entryDx=0;entryDy=0;endArrow=none;endFill=0;" parent="1" source="c5WlVnpwtsbiAsPfaiiA-17" target="c5WlVnpwtsbiAsPfaiiA-19" edge="1">
          <mxGeometry relative="1" as="geometry" />
        </mxCell>
        <mxCell id="c5WlVnpwtsbiAsPfaiiA-17" value="Firewall" style="image;html=1;image=img/lib/clip_art/networking/Firewall_02_128x128.png" parent="1" vertex="1">
          <mxGeometry x="210" y="200.25" width="45" height="41" as="geometry" />
        </mxCell>
        <mxCell id="c5WlVnpwtsbiAsPfaiiA-27" style="rounded=0;orthogonalLoop=1;jettySize=auto;html=1;exitX=0;exitY=0.5;exitDx=0;exitDy=0;entryX=1;entryY=0.5;entryDx=0;entryDy=0;startArrow=block;startFill=1;" parent="1" source="c5WlVnpwtsbiAsPfaiiA-18" target="c5WlVnpwtsbiAsPfaiiA-14" edge="1">
          <mxGeometry relative="1" as="geometry" />
        </mxCell>
        <mxCell id="c5WlVnpwtsbiAsPfaiiA-50" style="edgeStyle=orthogonalEdgeStyle;rounded=0;orthogonalLoop=1;jettySize=auto;html=1;exitX=0;exitY=0.5;exitDx=0;exitDy=0;startArrow=classic;startFill=1;endArrow=none;endFill=0;entryX=0.98;entryY=0.51;entryDx=0;entryDy=0;entryPerimeter=0;" parent="1" source="c5WlVnpwtsbiAsPfaiiA-19" target="c5WlVnpwtsbiAsPfaiiA-16" edge="1">
          <mxGeometry relative="1" as="geometry">
            <mxPoint x="90" y="230" as="targetPoint" />
          </mxGeometry>
        </mxCell>
        <mxCell id="c5WlVnpwtsbiAsPfaiiA-19" value="Internet" style="image;aspect=fixed;perimeter=ellipsePerimeter;html=1;align=center;shadow=0;dashed=0;spacingTop=3;image=img/lib/active_directory/internet_cloud.svg;" parent="1" vertex="1">
          <mxGeometry x="120" y="205" width="50" height="31.5" as="geometry" />
        </mxCell>
        <mxCell id="c5WlVnpwtsbiAsPfaiiA-51" value="DMZ" style="text;html=1;align=center;verticalAlign=middle;resizable=0;points=[];autosize=1;strokeColor=none;fillColor=none;" parent="1" vertex="1">
          <mxGeometry x="350" y="18" width="50" height="30" as="geometry" />
        </mxCell>
        <mxCell id="c5WlVnpwtsbiAsPfaiiA-52" value="" style="orthogonalLoop=1;jettySize=auto;html=1;rounded=0;dashed=1;endArrow=none;endFill=0;" parent="1" edge="1">
          <mxGeometry width="100" relative="1" as="geometry">
            <mxPoint x="532" y="26.75" as="sourcePoint" />
            <mxPoint x="532" y="408.75" as="targetPoint" />
          </mxGeometry>
        </mxCell>
        <mxCell id="c5WlVnpwtsbiAsPfaiiA-18" value="Firewall" style="image;html=1;image=img/lib/clip_art/networking/Firewall_02_128x128.png" parent="1" vertex="1">
          <mxGeometry x="510" y="202.5" width="45" height="41" as="geometry" />
        </mxCell>
        <mxCell id="c5WlVnpwtsbiAsPfaiiA-54" value="LAN" style="text;html=1;align=center;verticalAlign=middle;resizable=0;points=[];autosize=1;strokeColor=none;fillColor=none;" parent="1" vertex="1">
          <mxGeometry x="850" y="18" width="50" height="30" as="geometry" />
        </mxCell>
        <mxCell id="c5WlVnpwtsbiAsPfaiiA-55" value="Public Internet" style="text;html=1;align=center;verticalAlign=middle;resizable=0;points=[];autosize=1;strokeColor=none;fillColor=none;" parent="1" vertex="1">
          <mxGeometry x="80" y="18" width="100" height="30" as="geometry" />
        </mxCell>
      </root>
    </mxGraphModel>
  </diagram>
</mxfile>
